<?xml version="1.0" encoding="utf-8"?>
<!-- Uploaded to: SVG Repo, www.svgrepo.com, Generator: SVG Repo Mixer Tools -->
<svg width="800px" height="800px" viewBox="0 0 1024 1024" class="icon"  version="1.1" xmlns="http://www.w3.org/2000/svg"><path d="M173.248 113.344H860.16v736.832H173.248z" fill="#D3552F" /><path d="M173.248 113.344H860.16v132.672H173.248z" fill="#9D2524" /><path d="M212.48 308.864h608.384v230.72H212.48z" fill="#4E6874" /><path d="M215.168 850.112h99.776v73.856H215.168zM721.152 850.112h99.776v73.856h-99.776zM860.16 617.28h39.296v44.288h-39.296z" fill="#425760" /><path d="M889.024 489.28h76.096v183.552h-76.096z" fill="#D3552F" /><path d="M133.888 617.28h39.36v44.288h-39.36z" fill="#425760" /><path d="M68.288 489.28h76.032v183.552H68.288z" fill="#D3552F" /><path d="M368.768 589.44h304.192v207.104H368.768z" fill="#4E6874" /><path d="M368.768 636.032h304.192v36.288H368.768zM368.768 715.52h304.192v36.352H368.768z" fill="#6D858E" /><path d="M238.72 661.568h68.352v68.352H238.72zM736.768 661.568h68.352v68.352h-68.352z" fill="#FFFFFF" /></svg>